<?xml version="1.0" encoding="UTF-8"?><svg id="Layer_2" xmlns="http://www.w3.org/2000/svg" viewBox="0 0 100 101.38"><defs><style>.cls-1{fill:#cccfd2;stroke-width:0px;}</style></defs><g id="Layer_1-2"><path id="path1948" class="cls-1" d="m49.31,0c-4.18.02-8.17.37-11.68.99-10.35,1.81-12.23,5.61-12.23,12.61v9.19h24.44v3.62H16.73c-7,0-13.12,4.21-15.04,12.2-2.21,9.17-2.31,14.89,0,24.47,1.71,7.13,5.8,12.2,12.79,12.2h8.2v-11.12c0-8.04,6.95-15.12,15.21-15.12h24.16c6.8,0,12.23-5.56,12.23-12.33V13.61c0-6.58-5.59-11.52-12.23-12.61C57.85.3,53.49-.02,49.31,0Zm-12.94,7.36c2.51,0,4.55,2.08,4.55,4.64,0,2.55-2.05,4.61-4.55,4.61-2.52,0-4.55-2.06-4.55-4.61s2.04-4.64,4.55-4.64Z"/><path id="path1950" class="cls-1" d="m76.99,26.42v9.96c0,8.35-7.08,15.39-15.16,15.39h-24.2c-6.69,0-12.23,5.68-12.23,12.33v23.11c0,6.58,5.76,10.45,12.23,12.33,7.74,2.26,15.16,2.67,24.42,0,6.16-1.77,12.23-5.33,12.23-12.33v-9.19h-24.44v-2.72h36.22c7.02,0,9.64-4.88,12.08-12.2,2.52-7.54,2.42-14.79,0-24.47-1.74-6.96-5.05-12.2-12.08-12.2h-9.07Zm-13.33,57.96c2.52,0,4.55,2.06,4.55,4.61s-2.04,4.64-4.55,4.64-4.55-2.08-4.55-4.64,2.05-4.61,4.55-4.61Z"/></g></svg>