<?xml version="1.0" encoding="UTF-8"?><svg id="Layer_2" xmlns="http://www.w3.org/2000/svg" viewBox="0 0 100 98.33"><defs><style>.cls-1{fill:#cccfd2;fill-rule:evenodd;stroke-width:0px;}</style></defs><g id="Layer_1-2"><path class="cls-1" d="m50.04,0C22.37,0,0,22.53,0,50.41c0,22.28,14.33,41.15,34.22,47.82,2.49.5,3.4-1.08,3.4-2.42,0-1.17-.08-5.17-.08-9.35-13.92,3.01-16.82-6.01-16.82-6.01-2.24-5.84-5.55-7.34-5.55-7.34-4.56-3.09.33-3.09.33-3.09,5.05.33,7.71,5.17,7.71,5.17,4.47,7.68,11.68,5.51,14.58,4.17.41-3.26,1.74-5.51,3.15-6.76-11.1-1.17-22.78-5.51-22.78-24.87,0-5.51,1.99-10.02,5.14-13.52-.5-1.25-2.24-6.43.5-13.35,0,0,4.23-1.34,13.75,5.17,4.08-1.1,8.29-1.66,12.51-1.67,4.23,0,8.53.58,12.51,1.67,9.53-6.51,13.75-5.17,13.75-5.17,2.73,6.93.99,12.1.5,13.35,3.23,3.51,5.14,8.01,5.14,13.52,0,19.36-11.68,23.62-22.87,24.87,1.82,1.59,3.4,4.59,3.4,9.35,0,6.76-.08,12.19-.08,13.85,0,1.34.91,2.92,3.4,2.42,19.88-6.68,34.22-25.54,34.22-47.83.08-27.88-22.37-50.41-49.96-50.41Z"/></g></svg>