<?xml version="1.0" encoding="UTF-8"?><svg id="Layer_2" xmlns="http://www.w3.org/2000/svg" viewBox="0 0 100 100"><defs><style>.cls-1{fill:#cccfd2;stroke-width:0px;}</style></defs><g id="Layer_1-2"><path class="cls-1" d="m0,0v100h100V0H0Zm54.44,78.11c0,9.73-5.69,14.16-13.98,14.16-7.5,0-11.84-3.89-14.05-8.58l7.62-4.63c1.47,2.62,2.81,4.83,6.03,4.83s5.02-1.21,5.02-5.9v-31.95h9.37v32.08Zm22.24,14.13c-8.73,0-14.37-4.16-17.12-9.61l7.64-4.44c2.01,3.29,4.63,5.71,9.27,5.71,3.89,0,6.38-1.95,6.38-4.63,0-3.22-2.56-4.36-6.84-6.24l-2.35-1.01c-6.78-2.89-11.29-6.51-11.29-14.16,0-7.05,5.37-12.41,13.76-12.41,5.97,0,10.27,2.08,13.37,7.52l-7.32,4.7c-1.61-2.89-3.35-4.03-6.05-4.03s-4.5,1.75-4.5,4.03c0,2.82,1.75,3.96,5.78,5.71l2.35,1.01c7.98,3.42,12.49,6.91,12.49,14.76,0,8.46-6.65,13.1-15.57,13.1Z"/></g></svg>