<?xml version="1.0" encoding="UTF-8"?><svg id="Layer_2" xmlns="http://www.w3.org/2000/svg" viewBox="0 0 100 100"><defs><style>.cls-1{fill:#cccfd2;stroke-width:0px;}</style></defs><g id="Layer_1-2"><path class="cls-1" d="m50.03,64.37c0,1.61.96,5.89,1.91,6.01,0,0-.69-26.72-1.22-26.72-.68,0-.68,20.71-.68,20.71Z"/><path class="cls-1" d="m50,0C22.39,0,0,22.39,0,50s22.39,50,50,50,50-22.39,50-50S77.61,0,50,0Zm4.77,70.58l-.07.06c-.62.58-1.28,1.11-1.96,1.61l-.1.06c-.56,2.53-.99,5.09-1.27,7.67h-1.21c-.34-3.65-.81-7.09-.82-7.16h0s-.17-.11-.17-.11c-1.54-1.12-12.91-9.92-12.21-24.69.75-15.84,10.03-23.62,11.84-25.04,1.17-1.25,1.21-1.72,1.31-2.96.03.06.05.13.07.17,0,0,.89,2.2,1.77,3.43.8,1.75,8.27,6.33,11.43,20.27.32,1.83.48,3.68.49,5.54.06,11.14-5.82,18.12-9.09,21.15Z"/></g></svg>