<?xml version="1.0" encoding="UTF-8"?><svg id="Layer_2" xmlns="http://www.w3.org/2000/svg" viewBox="0 0 100 100"><defs><style>.cls-1{fill:#cccfd2;stroke-width:0px;}</style></defs><g id="Layer_1-2"><path class="cls-1" d="m90.23,0H9.77C4.37,0,0,4.37,0,9.77v80.47c0,5.39,4.37,9.77,9.77,9.77h80.47c5.39,0,9.77-4.37,9.77-9.77V9.77c0-5.39-4.37-9.77-9.77-9.77Zm-32.23,55.47h-12.5v35.74h-9.96v-35.74h-12.5v-8.01h34.96v8.01Zm32.37,29.37c-.93,1.66-2.18,3-3.77,4.03-1.59,1.03-3.43,1.76-5.54,2.21-2.11.45-4.33.67-6.67.67s-4.69-.2-6.85-.61c-2.17-.41-4.04-1.02-5.63-1.83v-9.76c1.77,1.49,3.69,2.6,5.77,3.34,2.08.74,4.17,1.11,6.29,1.11,1.24,0,2.32-.11,3.25-.34.93-.22,1.7-.53,2.32-.93.62-.4,1.08-.86,1.39-1.4.31-.54.46-1.12.46-1.75,0-.85-.24-1.62-.73-2.29-.49-.67-1.16-1.29-2-1.86-.84-.57-1.85-1.12-3.01-1.65-1.16-.53-2.41-1.07-3.75-1.62-3.42-1.42-5.97-3.16-7.65-5.22-1.68-2.05-2.52-4.54-2.52-7.45,0-2.28.46-4.24,1.37-5.87.92-1.64,2.16-2.99,3.74-4.04,1.58-1.06,3.4-1.84,5.48-2.33,2.08-.5,4.27-.75,6.59-.75s4.3.14,6.06.41c1.76.27,3.38.7,4.87,1.27v9.12c-.73-.51-1.53-.96-2.4-1.34-.86-.39-1.76-.71-2.67-.96-.92-.25-1.83-.44-2.73-.56-.91-.12-1.77-.18-2.58-.18-1.12,0-2.14.11-3.05.32-.92.21-1.69.51-2.32.9-.63.39-1.12.85-1.47,1.39-.35.54-.52,1.14-.52,1.82,0,.73.19,1.39.58,1.97.39.58.94,1.13,1.65,1.65.71.52,1.58,1.03,2.59,1.53,1.02.5,2.17,1.01,3.45,1.54,1.75.73,3.32,1.51,4.72,2.33s2.59,1.75,3.59,2.79c1,1.04,1.76,2.22,2.29,3.55.53,1.33.79,2.88.79,4.65,0,2.44-.46,4.49-1.39,6.15Z"/></g></svg>