<?xml version="1.0" encoding="UTF-8"?><svg id="Layer_2" xmlns="http://www.w3.org/2000/svg" viewBox="0 0 100 100.52"><defs><style>.cls-1{fill:#cccfd2;stroke-width:0px;}</style></defs><g id="Layer_1-2"><path class="cls-1" d="m50,0C22.39,0,0,22.5,0,50.26s22.39,50.26,50,50.26,50-22.5,50-50.26S77.61,0,50,0Zm8.28,50.32c0,4.24-.86,8.44-2.55,12.33h6.03c2.04,0,3.69,1.66,3.69,3.7s-1.65,3.7-3.69,3.7h-10.87c-1.46,1.69-3.09,3.21-4.88,4.54-.4.3-.85.51-1.34.64-1.49.38-3.06-.19-3.97-1.42-.3-.4-.51-.86-.63-1.34-.24-.98-.09-2.02.43-2.88.26-.43.59-.8.99-1.1,5.8-4.32,9.13-10.93,9.13-18.13s-3.33-13.81-9.13-18.13c-.4-.3-.74-.67-.99-1.1-.79-1.32-.71-2.99.21-4.23h.08c.9-1.22,2.49-1.82,4.07-1.37.43.12.83.35,1.19.62,1.75,1.31,3.35,2.8,4.78,4.45h10.94c2.04,0,3.69,1.66,3.69,3.7s-1.65,3.7-3.69,3.7h-6.04c1.69,3.89,2.56,8.09,2.55,12.33Z"/></g></svg>