<?xml version="1.0" encoding="UTF-8"?><svg id="Layer_2" xmlns="http://www.w3.org/2000/svg" viewBox="0 0 100 113.41"><defs><style>.cls-1{fill:#cccfd2;stroke-width:0px;}</style></defs><g id="Layer_1-2"><path class="cls-1" d="m0,0l9.1,102.07,40.84,11.34,40.95-11.35L100,0H0Zm81.04,24.2l-.57,6.35-.25,2.82h-47.93l1.14,12.82h45.65l-.31,3.37-2.95,33-.19,2.12-25.7,7.12v-.09h0s-25.64-7.12-25.64-7.12l-1.75-19.66h12.57l.89,9.98,13.94,3.76h.05s0,.06,0,.06l13.92-3.76,1.46-16.26h-15.44v-.06h-27.94l-3.07-34.48-.3-3.36h62.71l-.3,3.36Z"/></g></svg>