<?xml version="1.0" encoding="UTF-8"?><svg id="Layer_2" xmlns="http://www.w3.org/2000/svg" viewBox="0 0 100 135.65"><defs><style>.cls-1{fill:#cccfd2;stroke-width:0px;}</style></defs><g id="Layer_1-2"><g id="_181-java"><path class="cls-1" d="m72.79,82.9c2.6-1.78,6.2-3.31,6.2-3.31,0,0-10.25,1.85-20.45,2.7-12.48,1.03-25.88,1.24-32.61.34-15.92-2.12,8.74-7.98,8.74-7.98,0,0-9.56-.64-21.35,5.03-13.91,6.73,34.44,9.8,59.48,3.21Z"/><path class="cls-1" d="m50.17,74.4c-5.03-11.31-22.02-21.25,0-38.63C77.64,14.1,63.54,0,63.54,0c5.7,22.39-20.03,29.17-29.33,43.08-6.33,9.51,3.1,19.71,15.95,31.32Z"/><path class="cls-1" d="m80.53,27.71s-46.42,11.6-24.24,37.14c6.54,7.52-1.72,14.31-1.72,14.31,0,0,16.61-8.58,8.98-19.31-7.13-10.01-12.58-15,16.98-32.14Z"/><path class="cls-1" d="m78.91,99.38c-.13.32-.53.66-.53.69,33.99-8.93,21.49-31.5,5.25-25.78-1.43.5-2.17,1.67-2.17,1.67,0,0,.9-.37,2.91-.8,8.21-1.72,20,11-5.46,24.22h0Z"/><path class="cls-1" d="m91.42,115.88s3.84,3.15-4.21,5.62c-15.34,4.64-63.8,6.04-77.26.19-4.85-2.09,4.24-5.03,7.1-5.64,2.97-.64,4.69-.53,4.69-.53-5.38-3.79-34.79,7.45-14.94,10.65,54.1,8.8,98.66-3.95,84.62-10.28h0Z"/><path class="cls-1" d="m32.18,104.92c-20.85,5.83,12.69,17.86,39.24,6.49-4.34-1.7-7.47-3.66-7.47-3.66-11.84,2.25-17.33,2.41-28.08,1.19-8.88-1.01-3.68-4.03-3.68-4.03h0Z"/><path class="cls-1" d="m79.81,130.67c-20.85,3.92-46.58,3.47-61.81.95,0-.03,3.13,2.57,19.18,3.6,24.43,1.56,61.94-.87,62.82-12.43,0,0-1.7,4.37-20.19,7.87h0Z"/><path class="cls-1" d="m68.26,93.52c-15.68,3.02-24.77,2.94-36.24,1.75-8.88-.93-3.07-5.22-3.07-5.22-23,7.63,12.77,16.27,44.91,6.86-3.42-1.19-5.59-3.39-5.59-3.39Z"/></g></g></svg>