<?xml version="1.0" encoding="UTF-8"?><svg id="Layer_2" xmlns="http://www.w3.org/2000/svg" viewBox="0 0 100 97.5"><defs><style>.cls-1{fill:#cccfd2;stroke-width:0px;}</style></defs><g id="Layer_1-2"><path class="cls-1" d="m82.29,0H17.71C7.93,0,0,7.93,0,17.71v62.08c0,9.78,7.93,17.71,17.71,17.71h64.58c9.78,0,17.71-7.93,17.71-17.71V17.71c0-9.78-7.93-17.71-17.71-17.71Zm-21.31,68.75h-8.58c-.29.04-.59-.17-.67-.46l-3.43-9.96h-15.56l-3.18,9.83c-.08.38-.42.63-.79.59h-7.71c-.46,0-.58-.25-.46-.75l13.37-38.48c.12-.42.25-.87.42-1.37.17-.87.25-1.78.25-2.7-.04-.21.12-.42.33-.46h10.75c.33,0,.5.12.54.33l15.15,42.75c.12.46,0,.66-.42.66Zm14.44-.67c0,.46-.16.67-.53.67h-7.97c-.37,0-.67-.3-.67-.67v-32.08c0-.42.16-.58.53-.58h8.05c.32,0,.58.26.58.58v32.08Zm-.86-37.54c-.96,1-2.38,1.54-3.79,1.46-1.38.04-2.71-.5-3.71-1.46-.96-1.04-1.46-2.42-1.42-3.83-.04-1.42.5-2.75,1.5-3.71,1-.96,2.33-1.46,3.71-1.46,1.62,0,2.88.5,3.79,1.46.92,1,1.42,2.33,1.38,3.71.04,1.42-.46,2.79-1.46,3.83Z"/><path class="cls-1" d="m43.7,43.37c-.42-1.3-.8-2.56-1.22-3.86-.42-1.3-.8-2.52-1.13-3.73-.34-1.18-.63-2.27-.92-3.27h-.08c-.38,1.8-.84,3.61-1.43,5.41-.63,2.01-1.26,4.11-1.93,6.21-.59,2.14-1.22,4.11-1.85,5.88h10.66c-.25-.88-.59-1.93-.97-3.02-.38-1.13-.76-2.35-1.13-3.61Z"/></g></svg>