<?xml version="1.0" encoding="UTF-8"?><svg id="Layer_2" xmlns="http://www.w3.org/2000/svg" viewBox="0 0 100 112.53"><defs><style>.cls-1{fill:#cccfd2;stroke-width:0px;}</style></defs><g id="Layer_1-2"><path class="cls-1" d="m100,32.4c0-1.38-.49-2.91-1.27-4.27l-19.78,11.42s.02.03.02.04l-14.43,8.35s-.02-.03-.03-.05l-13.61,7.86h0s13.61-7.86,13.61-7.86c-2.98-5.11-8.5-8.28-14.41-8.28-9.19,0-16.67,7.48-16.67,16.67s7.48,16.67,16.67,16.67c5.93,0,11.47-3.19,14.44-8.34l14.43,8.35c-5.95,10.27-17.01,16.66-28.87,16.66-18.38,0-33.33-14.95-33.33-33.33S31.73,22.93,50.11,22.93c11.84,0,22.89,6.37,28.84,16.62l19.78-11.42c-.78-1.36-1.87-2.55-3.06-3.23L54.33,1.03c-2.38-1.38-6.28-1.38-8.66,0L4.33,24.9c-2.38,1.37-4.33,4.75-4.33,7.5v47.73c0,1.38.49,2.91,1.27,4.27.78,1.36,1.98,2.55,3.17,3.23l41.34,23.87c2.38,1.38,6.28,1.38,8.66,0l41.34-23.87c1.19-.69,2.27-1.87,3.06-3.23l-.08-.05c.77-1.35,1.25-2.86,1.25-4.22v-47.73Zm-16.67,25.73h-3.59v3.59h-3.59v-3.59h-3.59v-3.59h3.59v-3.92h3.59v3.59h3.59v3.92Zm14.05,0h-3.92v3.59h-3.59v-3.59h-3.59v-3.59h3.59v-3.92h3.59v3.59h3.92v3.92Z"/></g></svg>