<?xml version="1.0" encoding="UTF-8"?><svg id="Layer_2" xmlns="http://www.w3.org/2000/svg" viewBox="0 0 64 56.94"><defs><style>.cls-1{fill:#cccfd2;stroke-width:0px;}.cls-2{fill:none;stroke:#cccfd2;stroke-miterlimit:10;stroke-width:2.73px;}</style></defs><g id="Layer_1-2"><circle class="cls-1" cx="32" cy="28.42" r="5.72"/><path class="cls-2" d="m32,16.49c7.67,0,14.8,1.1,20.18,2.95,6.48,2.23,10.46,5.61,10.46,8.67s-4.22,6.78-11.17,9.08c-5.26,1.74-12.18,2.65-19.46,2.65s-14.54-.85-19.86-2.67c-6.73-2.3-10.78-5.94-10.78-9.06s3.8-6.39,10.19-8.61c5.39-1.88,12.7-3.01,20.45-3.01h0Z"/><path class="cls-2" d="m21.89,22.64c3.83-6.65,8.35-12.27,12.64-16,5.17-4.5,10.08-6.26,12.73-4.73,2.76,1.59,3.76,7.04,2.29,14.22-1.12,5.42-3.79,11.87-7.42,18.18-3.73,6.47-8,12.17-12.23,15.87-5.35,4.68-10.53,6.37-13.24,4.81-2.63-1.52-3.63-6.48-2.37-13.13,1.07-5.61,3.74-12.5,7.61-19.21h0Z"/><path class="cls-2" d="m21.9,34.32c-3.84-6.64-6.46-13.36-7.55-18.94-1.32-6.72-.39-11.86,2.26-13.39,2.76-1.6,7.98.26,13.46,5.12,4.14,3.68,8.39,9.21,12.04,15.51,3.74,6.46,6.55,13.01,7.64,18.52,1.38,6.97.26,12.3-2.44,13.87-2.63,1.52-7.43-.09-12.56-4.5-4.33-3.73-8.96-9.48-12.85-16.19h0Z"/></g></svg>